<svg>
	<g id="avatar" viewBox="0 0 100 100">
		<desc>Default user avatar image</desc>
		<path fill="#D6D6D6" d="M0 0h100v100H0z"/>
		<path fill="#fff" d="M13.1 99.5H87c.1-2.3.1-12.7-3.4-23.6-3-9.4-12.1-9.4-18.7-9.4H64l-14 26-13.8-26h-.9c-6.6 0-15.7 0-18.7 9.4C13 86.8 13 97.2 13.1 99.5z"/>
		<path fill="#EFEFEF" d="M55.7 22.5c-5.4 0-16.3 4.3-18.2 5.3-1.7.9-3.6 9-4.3 14.1.4 11.5 7.8 20.5 16.9 20.5 9.3 0 16.9-9.7 16.9-21.5v-1.1c-.5-.6-.6-1.8-.8-3.9-.1-1-.2-2.1-.3-2.9-.1-.2-.1-.4-.2-.7-.4-.8-1.9-2.6-3.6-4.5-1.3-1.6-2.7-3.2-3.8-4.6-.5-.5-1.3-.7-2.6-.7z"/>
		<path fill="#fff" d="M58 10.8h-.6c-4.3.6-12.4 1.5-15.8 1.7-3.3.2-11 7.1-12 8.6-.4.7-1.3 4.3-1.7 8.5-.6 5.4-.2 7.9.3 8.4 1.3 1.2 3.1 2.4 4 2.9.5-2.8 2.3-13 4.8-14.3 2-1.1 13-5.4 18.7-5.4 1.7 0 2.8.4 3.3 1.1 1.1 1.4 2.4 3 3.8 4.6 1.8 2.1 3.3 3.8 3.7 4.8.4.8.5 2.3.6 3.8.1 1.1.2 3 .5 3.3 0 0 .2.1.6.1 1.2 0 2.9-.4 3.3-.7 0-.3 0-1-.1-1.6-.1-1.4-.3-3.6 0-5.9.3-2.4-2.5-7.5-7.6-14-.4-.5-.7-1.2-1.1-1.9-1.2-1.8-2.4-4-4.7-4z"/>
		<path fill="#EFEFEF" d="M60.6 59.1c-3 2.8-6.6 4.4-10.6 4.4s-7.6-1.6-10.6-4.4c0 0-.1 4.6-2.7 6.3l.2.3L50 90.3l13.2-24.9c-2.4-2.4-2.6-6.3-2.6-6.3z"/>
	</g>
</svg>