<?xml version="1.0" encoding="utf-8"?>
<!-- Generator: Adobe Illustrator 18.1.1, SVG Export Plug-In . SVG Version: 6.00 Build 0)  -->
<!DOCTYPE svg PUBLIC "-//W3C//DTD SVG 1.1//EN" "http://www.w3.org/Graphics/SVG/1.1/DTD/svg11.dtd">
<svg version="1.1" xmlns="http://www.w3.org/2000/svg" xmlns:xlink="http://www.w3.org/1999/xlink" x="0px" y="0px"
	 viewBox="0 0 1920 150" enable-background="new 0 0 1920 150" xml:space="preserve">
<g id="Layer_3">
	<linearGradient id="SVGID_1_" gradientUnits="userSpaceOnUse" x1="0" y1="75" x2="1920" y2="75">
		<stop  offset="0" style="stop-color:#1868B1"/>
		<stop  offset="1" style="stop-color:#9C55A0"/>
	</linearGradient>
	<rect y="0" fill="url(#SVGID_1_)" width="1920" height="150"/>
</g>
<g id="Layer_2">
	<path opacity="0.35" fill="#FFFFFF" d="M92.1,98.8c-1.9,0-4,0-6.2-0.1c-12.2-0.4-23.5-1.9-32-4.4C43.3,91.1,36.1,80,31.9,71.2
		c-1.1-2.3-4.4-8.7-10.5-17C16.1,46.9,0.2,32.8,0,32.7v-5.4c0.7,0.6,19.1,16.9,24.6,24.5c6.1,8.3,9.4,14.6,10.9,17.7
		c5.4,11.4,12.4,18.8,19.6,20.9c8.2,2.4,19.2,3.9,31,4.3c19.5,0.6,26.2-1.4,31.3-5c2-1.4,9.4-5.7,21.2-2.1l0.8,0.3
		c6,1.8,9.2,2.9,12.8-4.2c2.6-5.1,4.3-12,5.9-18c1.1-4.4,2.2-8.6,3.5-11.8c1.4-3.4,3.3-9.4,5.3-15.8c2.3-7.3,4.7-14.8,6.6-19.4
		c2.6-6.4,2.9-12.9,1.1-18.6l3.9,0c2.2,6.6,1.8,12.8-1.3,20.1c-1.8,4.4-4.2,11.9-6.5,19.1c-2,6.4-4,12.5-5.4,16.1
		c-1.2,3-2.2,7-3.3,11.3c-1.6,6.2-3.4,13.3-6.2,18.8c-5.1,10.1-11.7,8.1-17.5,6.3l-0.8-0.3c-10.1-3.1-16.1,0.4-17.8,1.6
		C114.5,96.6,108.1,98.8,92.1,98.8z"/>
	<path opacity="0.35" fill="#FFFFFF" d="M66,36.5c-2.4,0-4.4-0.3-4.6-0.4c-0.1,0-9.1-2.6-21.6-12.3C27.4,14.2,22.7,0.3,22.7,0.2
		l1-0.3c0,0.1,4.6,13.8,16.8,23.3c12.3,9.5,21.1,12.1,21.2,12.1c0,0,7.5,1.3,10.7-1.1c3.8-2.7,11.9-6.3,18.5-7.4
		c6.6-1.1,16.3-2.5,25.2-2.7c8.3-0.2,11,3.9,11.4,4.5c0.4,0.3,2.8,2.3,5.3,1.7c2-0.5,3.7-2.4,5-5.8l0.5-1.4c3.9-10,6-15.6,7.1-23.2
		l1,0.1c-1.1,7.7-3.3,13.3-7.2,23.4l-0.5,1.4c-1.4,3.7-3.4,5.9-5.7,6.4c-3.3,0.7-6.1-1.9-6.3-2l-0.1-0.1c0,0-2.4-4.2-10.5-4.1
		c-8.9,0.2-18.5,1.5-25.1,2.7c-6.5,1.1-14.5,4.6-18.1,7.2C71.2,36.2,68.4,36.5,66,36.5z"/>
	<path opacity="0.35" fill="#FFFFFF" d="M82.8,14.2c-0.3,0-0.6,0-0.9,0C66.7,13.8,45.6,0.6,45.4,0.4l0.5-0.8
		C46.1-0.3,67,12.8,81.8,13.2c15.2,0.3,29.7-7.6,39.4-13.6l0.5,0.8C112.2,6.4,97.8,14.2,82.8,14.2z"/>
	<path opacity="0.35" fill="#FFFFFF" d="M116.7,147.7c-4.9,0-10.8-1.4-19.7-4.5c-10.5-3.7-41.8-24.2-47.5-28.1
		c-5.4-3.7-6.6-3.6-13.1-2.9l-1.7,0.2c-7.8,0.8-12.8-6.3-14.7-8.9c-0.2-0.2-0.3-0.5-0.5-0.6c-1.6-2.2-7.1-12.9-9.4-20.5
		C7.9,74.8,0.1,70.6,0,70.6v-1.2c0.3,0.2,8.8,4.7,11.1,12.6c2.4,7.9,7.9,18.3,9.3,20.2c0.1,0.2,0.3,0.4,0.5,0.6
		c2,2.8,6.6,9.2,13.7,8.5l1.7-0.2c6.7-0.7,8.1-0.9,13.8,3.1c5.6,3.9,36.8,24.3,47.2,27.9c10.5,3.7,16.7,4.9,22.1,4.3
		c5.3-0.6,23.7-6.6,28.8-13c1.8-2.2,4.4-5.3,7.1-8.5c5.3-6.3,11.4-13.4,14.5-18.1c4.6-6.8,7.9-14.1,10.3-22.9
		c2.4-8.8,12.7-33.7,19.5-46.3c6.6-12.2,6.4-20.8,5.9-24c-0.1-0.4-0.1-0.9-0.2-1.5c-0.3-3.1-1-9-3.2-12.2h1
		c2.3,3.4,2.8,8.9,3.1,12.1c0.1,0.6,0.1,1.1,0.2,1.5c0.4,3.3,0.7,12.2-6.1,24.6c-6.8,12.5-17.1,37.3-19.5,46.1
		c-2.4,8.9-5.7,16.2-10.4,23.1c-3.2,4.7-9.2,11.9-14.6,18.2c-2.7,3.2-5.3,6.3-7.1,8.5c-5.2,6.6-23.5,12.6-29.5,13.4
		C118.6,147.6,117.7,147.7,116.7,147.7z"/>
	<path opacity="0.35" fill="#FFFFFF" d="M24.7,150.4c-7.6-1.7-14.1-7.4-18.1-11.8c-4.4-4.8-6.6-8.6-6.6-8.7l0-1.8
		c0.1,0.2,10.8,18.2,24.9,21.3L24.7,150.4z"/>
	<path opacity="0.35" fill="#FFFFFF" d="M41.4,150.5l-0.4-0.9c0.2-0.1,6-2.9,11.2-2.9c0,0,0,0,0,0c5.3,0,7.9,2.8,8,2.9l-0.7,0.7
		c0,0-2.4-2.6-7.3-2.6c0,0,0,0,0,0C47.2,147.7,41.4,150.4,41.4,150.5z"/>
	<path opacity="0.35" fill="#FFFFFF" d="M162.8,150.2c-0.3-0.3-1.1-1.2,13-17.6c11.4-13.2,21.6-33.5,26.4-43.2c1-2,1.7-3.4,2.2-4.2
		c2.5-4.5,12.8-29.6,12.9-37.8c0.1-7.1,2.3-14.9,3.5-19.5c0.2-0.7,0.4-1.3,0.5-1.8c0.3-1,0.6-1.9,0.9-3c1.1-3.1,2.2-6.5,1.9-11.7
		c-0.5-6.8-3.5-11.2-3.6-11.2l0.8-0.6c0.1,0.2,3.3,4.7,3.8,11.8c0.4,5.4-0.8,8.9-1.9,12.1c-0.3,1-0.7,2-0.9,2.9
		c-0.1,0.5-0.3,1.1-0.5,1.8c-1.3,4.6-3.3,12.2-3.5,19.2c-0.2,8.3-10.6,33.7-13.1,38.2c-0.4,0.8-1.2,2.3-2.1,4.2
		c-4.9,9.8-15.1,30.1-26.6,43.4c-12.2,14.2-12.9,16.3-12.9,16.5l-0.4-0.1L162.8,150.2z"/>
	<path opacity="0.35" fill="#FFFFFF" d="M184.1,150.2l-0.9-0.5c1.4-2.4,4.6-5.3,8.7-8.9l1.6-1.4c1-0.8,1.8-1.4,2.7-2.1
		c3.7-2.6,8.3-5.8,24.1-29.8c20.4-31.1,25.7-64.8,25.8-65.1c0.6-3.9,0.5-14.1-3.8-24.2c-4.5-10.6-5-18.1-5-18.2l1-0.1
		c0,0.1,0.6,7.4,5,17.9c4.4,10.4,4.4,20.7,3.9,24.8c0,0.3-5.3,34.2-25.9,65.5c-15.9,24.2-20.6,27.5-24.4,30.1
		c-0.9,0.6-1.7,1.2-2.6,2l-1.7,1.4C188.6,145.2,185.4,148,184.1,150.2z"/>
	<path opacity="0.35" fill="#FFFFFF" d="M206.7,150.3l-0.8-0.6c9-10.6,23.7-22.6,33.4-30.5l0.3-0.2c9.2-7.5,11.2-11.7,13.7-17.2
		l0.5-1c0.5-1.1,1-2.1,1.6-3.1c2.3-4.4,5-9.3,8.9-27.6c5.1-23.8,6.5-44.4,6.5-52.7c0-9.8,3.7-17.5,3.7-17.6l0.9,0.4
		c0,0.1-3.6,7.5-3.6,17.1c0,8.4-1.4,29-6.5,52.9c-4,18.5-6.6,23.5-9,27.9c-0.5,1-1,2-1.6,3l-0.5,1c-2.6,5.5-4.6,9.9-14,17.5L240,120
		C230.3,127.9,215.6,139.8,206.7,150.3z"/>
	<path opacity="0.35" fill="#FFFFFF" d="M274,150.2c-0.1-0.1-6.6-6.8-14.5-7.1c-7.8-0.3-13.4,7-13.4,7l-0.8-0.6
		c0.2-0.3,5.9-7.7,14.3-7.4c8.3,0.3,14.9,7.1,15.2,7.4L274,150.2z"/>
	<path opacity="0.35" fill="#FFFFFF" d="M343,149.9c-0.8-24.3-5.9-37.2-10.5-48.6c-1.4-3.6-2.8-7-4-10.7c-5-15.1-2.7-23.1-1.2-28.4
		l0.2-0.7c1.5-5.2,4-11.8,11.7-31.1c7.4-18.3,6.1-30.3,6.1-30.4l1-0.1c0,0.1,1.3,12.3-6.2,30.9c-7.7,19.2-10.2,25.8-11.6,30.9
		l-0.2,0.7c-1.5,5.2-3.7,13,1.2,27.8c1.2,3.6,2.6,7,4,10.6c4.6,11.5,9.8,24.5,10.5,48.9L343,149.9z"/>
	<path opacity="0.35" fill="#FFFFFF" d="M361.6,150.1l-0.9-0.5c4.5-8.5,4.9-14.5,5.1-16.7c0-0.3,0-0.5,0.1-0.7
		c0-0.2,0.7-6.1-5.4-13.5c-5.3-6.4-3.4-11.9-2.4-14.8c0.1-0.3,0.2-0.6,0.3-0.8c0.2-0.7,0.5-1.4,0.8-2.1c0.9-2,1.9-4.5,2.3-9.6
		c0.3-4.1-0.5-5.4-2.3-8.2c-1.1-1.8-2.6-4.2-4.4-8.2c-4.6-10.5,2.6-16,2.7-16c0,0,4.9-4.4,9-18.2c4.1-13.9,3.3-40.7,3.3-40.9l1,0
		c0,0.3,0.8,27.2-3.4,41.3c-4.2,14.1-9.1,18.6-9.3,18.7c-0.3,0.2-6.6,5.1-2.4,14.8c1.7,4,3.3,6.4,4.3,8.1c1.8,2.8,2.8,4.3,2.5,8.8
		c-0.3,5.3-1.4,7.9-2.3,9.9c-0.3,0.7-0.6,1.4-0.8,2c-0.1,0.3-0.2,0.6-0.3,0.9c-1,2.9-2.7,7.9,2.2,13.8c6.2,7.5,5.7,13.6,5.6,14.2
		c0,0.1,0,0.4-0.1,0.6C366.6,135.3,366.2,141.4,361.6,150.1z"/>
	<path opacity="0.35" fill="#FFFFFF" d="M379.7,150l-1-0.1c0.1-0.6-0.4-1.8-0.9-3.1c-0.7-1.8-1.6-4.1-1.6-6.1
		c-0.1-4.6,1.3-9.7,4.1-15.6c3-6.3,3.5-10.7,4.2-16.3l0.2-1.7c0.9-6.6-0.8-12.7-2.5-18.5c-0.5-1.7-1-3.4-1.7-5.2
		c-1.8-5.5-3.9-11.6-4.4-19.4c-0.6-10,6.7-22.1,9.1-26.1l0.3-0.5c0.9-1.5,1.6-3.2,2.5-5.5c1.1-2.7,2.4-6,4.8-10.9
		C397.3,12,395,0.2,395,0.1l1-0.2c0.1,0.5,2.3,12.3-2.2,21.5c-2.4,4.8-3.7,8.2-4.8,10.8c-0.9,2.4-1.6,4.1-2.6,5.7l-0.3,0.5
		c-2.4,3.9-9.6,15.8-8.9,25.5c0.5,7.6,2.5,13.7,4.3,19.1c0.6,1.8,1.2,3.6,1.7,5.3c1.7,5.9,3.4,12,2.5,18.9l-0.2,1.7
		c-0.7,5.7-1.3,10.2-4.3,16.6c-2.7,5.7-4,10.7-4,15.1c0,1.9,0.8,3.9,1.5,5.8C379.3,148,379.7,149.2,379.7,150z"/>
	<path opacity="0.35" fill="#FFFFFF" d="M397.7,149.9h-1c0-1.3-0.4-4.2-1-7.4c-0.5-3.3-1.1-7.1-1.4-10.1c-0.5-5.8-0.6-14.7,1.8-24
		c0.9-3.7,2.2-6.6,3.5-9.4c1.9-4.3,3.7-8.4,4.4-15c0.7-6.4,0-7.3-1.5-9.6c-1.1-1.7-2.7-3.9-4.5-9.2c-3.9-11.4-1-18.4,1.3-24.1
		c0.3-0.8,0.6-1.5,0.9-2.2c2.3-6.1,3.5-9.3,6.3-17.3c2.8-7.8,1-21.3,1-21.4l1-0.1c0.1,0.6,1.8,13.9-1,21.9c-2.8,8-4,11.2-6.3,17.3
		c-0.3,0.7-0.6,1.5-0.9,2.2c-2.2,5.5-5,12.4-1.3,23.4c1.8,5.1,3.3,7.4,4.4,9c1.6,2.4,2.4,3.5,1.7,10.3c-0.7,6.8-2.6,11.1-4.5,15.3
		c-1.2,2.8-2.5,5.7-3.4,9.3c-2.3,9.2-2.2,17.9-1.8,23.7c0.2,3,0.8,6.7,1.4,10C397.2,145.6,397.7,148.5,397.7,149.9z"/>
	<path opacity="0.35" fill="#FFFFFF" d="M420.5,150l-4-0.2c0.1-1-0.9-2.1-1.8-3.2c-1-1.3-2.1-2.6-2.2-4.3c-0.2-2.5-0.2-4.1,1.7-24
		c1.6-17.4,9.6-33.4,12.6-39.4c0.5-1,0.9-1.8,1.1-2.2c0.9-2.1,1.9-7.3,0.4-10.3c-0.6-1.2-1.5-1.8-2.9-2.2c-3.1-0.7-5.2-2.1-6.2-4.2
		c-1.2-2.4-0.5-4.7-0.2-5.4c0.1-0.6,1-4.7,1.7-19c0.8-16.2,10.5-35.8,10.9-36.6l3.6,1.8c-0.1,0.2-9.7,19.7-10.5,35
		c-0.8,15.8-1.8,19.6-1.9,19.9l-0.1,0.3l0,0c0,0-0.5,1.2,0.1,2.2c0.6,1.2,2.3,1.7,3.5,2c2.5,0.6,4.4,2,5.5,4.2
		c2.5,4.8,0.6,11.5-0.3,13.7c-0.2,0.5-0.6,1.3-1.2,2.5c-2.9,5.8-10.6,21.3-12.2,37.9c-1.8,19.5-1.8,21.1-1.7,23.3
		c0,0.4,0.8,1.4,1.4,2.1C419.1,145.6,420.6,147.5,420.5,150z"/>
	<path opacity="0.35" fill="#FFFFFF" d="M446.2,150c-1.2-7.5-5.7-47-3.3-59.7c2.3-12.2,2.9-13.4,13.7-33.5l1.2-2.2
		C470.3,31.2,472.3,0.3,472.3,0l1,0.1c0,0.3-2.1,31.5-14.7,55l-1.2,2.2c-10.7,20-11.4,21.2-13.6,33.2c-2.3,12.4,2.2,52.2,3.3,59.4
		L446.2,150z"/>
	<path opacity="0.35" fill="#FFFFFF" d="M622.2,150.1l-1-0.2c0,0,0.7-3.4,0-16.9c-0.3-4.6-1.5-7.7-3.8-9.3c-2.7-1.8-5.9-0.8-6-0.8
		c-0.7,0.3-3.6,0.6-16.3-1.7c-14.8-2.8-35.3-14.4-37.2-15.8c-2.1-1.6-12.1-11.6-15.6-15.3c-3-3.2-12.9-8.9-24-5.6
		c-5.1,1.5-22.3,7.8-29.7,25.7c-5.9,14.2-1.3,39.4-1.2,39.6l-1,0.2c0-0.3-4.7-25.7,1.3-40.2c5.1-12.4,16.5-22.2,30.3-26.3
		c11.1-3.3,21.3,1.9,25,5.9c3.4,3.6,13.4,13.7,15.4,15.2c1.9,1.4,22.1,12.9,36.8,15.7c13.7,2.5,15.6,1.8,15.7,1.8
		c0.2-0.1,3.8-1.3,7,0.9c2.6,1.7,4,5.1,4.3,10C623,146.6,622.3,150,622.2,150.1z"/>
	<path opacity="0.35" fill="#FFFFFF" d="M504.7,150l-1-0.1c0-0.2,1.5-23.5,1.5-29.2c0-6,3.9-17.7,11.6-19.7c8.1-2.1,17.2,4.9,20,8.9
		c3,4.2,19.9,24.2,26.6,28.4c2.1,1.3,4.3,2.4,6.5,3.5c5,2.4,9.3,4.5,9.5,8.2l-1,0.1c-0.2-3.1-4.2-5.1-8.9-7.3
		c-2.2-1.1-4.5-2.2-6.6-3.5c-6.8-4.3-23.9-24.4-26.9-28.6c-2.9-4.1-11.7-10.5-19-8.6c-4,1.1-6.6,4.9-8.1,8
		c-1.7,3.4-2.8,7.7-2.8,10.8C506.2,126.5,504.8,149.8,504.7,150z"/>
	<path opacity="0.35" fill="#FFFFFF" d="M688.9,150.9c-17-35.2-42.3-49.8-59.8-57.8c-9.8-4.4-34-13.2-50-19
		c-6.7-2.4-11.9-4.3-14.9-5.5c-8.8-3.4-21.1-11.2-29.8-29.5c-7.6-15.9-8.7-38.2-8.7-39.1l4-0.2c0,0.2,1.1,22.4,8.3,37.6
		c8.2,17.1,19.5,24.4,27.7,27.5c3,1.1,8.5,3.1,14.9,5.4c17,6.2,40.3,14.6,50.2,19.1c7.8,3.6,18.2,8.8,29,17.6
		c13.6,11.1,24.6,25.2,32.7,42.1L688.9,150.9z"/>
	<path opacity="0.35" fill="#FFFFFF" d="M714.7,150.1l-1-0.2c0-0.1,3.1-15.3-19.2-48.5c-22.4-33.3-53.8-36.9-54.1-36.9
		c-0.3,0-30.9-4.7-58.7-19.8c-27.8-15.2-39.1-44.3-39.2-44.6l0.9-0.4c0.1,0.3,11.3,29.1,38.8,44.1c27.6,15,58,19.6,58.3,19.7
		c0.3,0,32.2,3.7,54.8,37.3C718,134.5,714.9,149.5,714.7,150.1z"/>
	<path opacity="0.35" fill="#FFFFFF" d="M730.3,150.1c-10.6-18.6-16.2-33.6-21.7-48.1c-3.4-9.1-6.9-18.4-11.6-28.6
		c-12-25.9-40-25.2-40.3-25.2c-0.2,0-15-0.6-47.6-7.3c-32.9-6.7-45.7-40.5-45.9-40.8l0.9-0.3c0.1,0.3,12.8,33.6,45.1,40.2
		c32.6,6.7,47.3,7.2,47.4,7.2c0.3,0,28.9-0.7,41.2,25.8c4.7,10.2,8.2,19.6,11.6,28.7c5.4,14.5,11,29.4,21.6,47.9L730.3,150.1z"/>
	<path opacity="0.35" fill="#FFFFFF" d="M750.9,150.3c-10.9-11.6-15-21.8-18.5-30.8c-0.7-1.8-1.4-3.5-2.1-5.1
		c-1.6-3.9-2.5-7.6-3.7-12.8c-1.9-8.5-4.6-20.1-12.6-41.5c-5.4-14.4-14.2-24.6-26-30.3c-8.6-4.1-15.9-4.4-18-4.4
		c-0.6,0-1.1-0.1-2.2-0.2c-3.3-0.3-10.9-1.1-37.1-2.1C596.3,22,587.1,0.4,587,0.2l0.9-0.4c0,0.1,2.2,5.4,8.6,10.8
		c5.9,5,16.6,11,34.2,11.7c26.2,1,33.9,1.7,37.2,2.1c1,0.1,1.5,0.2,2.1,0.2c3.2,0,32,1,44.9,35.3c8.1,21.5,10.7,33.1,12.7,41.6
		c1.2,5.1,2,8.8,3.6,12.6c0.7,1.7,1.4,3.3,2.1,5.1c3.5,8.9,7.5,19.1,18.3,30.5L750.9,150.3z"/>
	<path opacity="0.35" fill="#FFFFFF" d="M649.9,9.6c-23.2,0-34.4-9.1-34.5-9.2l0.6-0.8c0.1,0.1,12.4,10.1,38.2,8.9
		c3.6-0.2,10.8-0.5,12.4-1c-0.5-0.3-1.6-0.7-2.6-1.1c-3.1-1.2-7.8-3.1-10.2-6.1l0.8-0.6c2.3,2.8,6.8,4.6,9.8,5.8
		c2.5,1,3.5,1.4,3.4,2.2c-0.2,0.9-1.3,1.3-13.6,1.9C652.8,9.6,651.3,9.6,649.9,9.6z"/>
	<path opacity="0.35" fill="#FFFFFF" d="M932.5,150.1c-2.4-9.7-6.7-16.3-12.7-19.8c-8.5-4.9-18.3-2.1-22-1.1
		c-0.3,0.1-0.6,0.2-0.9,0.2c-8.6,2.3-19.3,3.9-31.8,4.8c-17.1,1.2-46.8-9.5-55.7-20.2c-8.9-10.7-21.7-22.4-26.2-25.9
		c-0.6-0.5-1.3-1-2-1.5c-4.6-3.3-10.2-7.4-14.2-22.3c-4.6-17.3-10.1-22.3-14.6-26.3l-0.6-0.5c-4-3.6-4-3.6-22.2-11.8l-1.4-0.6
		C708,16,690.6,0.4,690.4,0.3l0.7-0.7c0.2,0.2,17.4,15.7,37.6,24.8l1.4,0.6c18.4,8.3,18.4,8.3,22.5,12l0.6,0.5
		c4.3,3.9,10.2,9.2,14.9,26.7c3.9,14.6,9.4,18.5,13.8,21.7c0.7,0.5,1.4,1,2,1.5c4.5,3.6,17.3,15.3,26.3,26.1
		c8.7,10.5,37.9,21.1,54.8,19.8c12.5-0.9,23.2-2.5,31.7-4.7c0.2-0.1,0.5-0.1,0.9-0.2c3.8-1.1,13.9-4,22.8,1.2
		c6.2,3.6,10.7,10.5,13.2,20.4L932.5,150.1z"/>
	<path opacity="0.35" fill="#FFFFFF" d="M901.5,150.2c-1.9-5.5-11.2-6.9-14.3-7c-1.1,0-3,0.3-5.4,0.8c-4.7,0.8-11,2-18.1,1.8
		c-6.4-0.1-8.5-0.7-13-2.1c-3.2-0.9-7.6-2.2-15.6-3.9c-18.5-4-19.1-4-25.6-3.6l-1,0.1c-1.4,0.1-2.4,0.6-3.2,1.7
		c-2.9,3.6-1.6,11.8-1.6,11.9l-1,0.2c-0.1-0.4-1.4-8.7,1.8-12.7c1-1.2,2.3-1.9,3.9-2l1-0.1c6.5-0.4,7.2-0.5,25.9,3.6
		c8,1.8,12.5,3,15.7,4c4.6,1.3,6.5,1.9,12.7,2c6.9,0.2,13.2-1,17.9-1.8c2.5-0.4,4.4-0.8,5.6-0.8c3.3,0.1,13.1,1.6,15.2,7.6
		L901.5,150.2z"/>
	<path opacity="0.35" fill="#FFFFFF" d="M954.3,150.2c-10.2-28.4-19-35-24.7-37.5c-6.8-2.9-19.5-0.8-25.9,1.3
		c-6.5,2.1-32.1,4.3-40.4,3.8c-5.5-0.3-9.5-2.4-14.1-4.8c-2.9-1.5-6.2-3.2-10.3-4.7c-4.9-1.8-7.1-2.4-9.6-3.1c-3-0.8-6-1.6-13.9-4.7
		c-13-4.9-18.6-14.3-22.7-21.1c-0.5-0.9-1.1-1.8-1.6-2.6c-2.6-4.1-4.5-8.7-7.1-15c-1.6-4-3.7-9-6.4-15
		c-6.8-15.2-23.7-24.4-36.7-29.5c-12.7-5-29.7-16.7-29.9-16.8l0.6-0.8c0.2,0.1,17.1,11.8,29.6,16.7c13.1,5.2,30.3,14.5,37.3,30
		c2.7,6.1,4.8,11.1,6.5,15.1c2.6,6.3,4.5,10.8,7,14.9c0.5,0.8,1,1.7,1.6,2.6c4,6.7,9.6,15.9,22.2,20.7c7.9,3,10.9,3.8,13.9,4.6
		c2.4,0.7,4.7,1.3,9.6,3.1c4.2,1.6,7.5,3.3,10.4,4.8c4.7,2.5,8.5,4.4,13.7,4.7c9,0.5,34.1-1.8,40.1-3.7c6.5-2.1,19.5-4.3,26.6-1.2
		c5.9,2.5,14.9,9.2,25.3,38L954.3,150.2z"/>
	<path opacity="0.35" fill="#FFFFFF" d="M977.7,150c-0.3,0-0.5,0-0.8,0c-10.7-0.3-17.2-12.8-20.3-18.8l-0.4-0.8
		c-0.3-0.6-0.7-1.4-1.1-2.2c-2.9-5.7-8.4-16.4-19.7-32.6c-4.6-6.6-9.5-10.1-14.6-10.6c-5.6-0.5-9.3,3.1-9.4,3.1
		c-2.2,2.2-14.8,9.3-14.9,9.3c-7.8,4.4-19.9,4.9-34.9,1.7c-18.6-4-35.3-16.3-45.4-23.6c-2.1-1.6-4-2.9-5.5-3.9
		c-9.6-6.5-16.2-21.4-17-25.3l-0.1-0.3c-0.7-3.5-1.4-7-11.5-18.8c-10.4-12.1-35.2-25.5-35.4-25.6l1.9-3.5c1,0.6,25.7,13.9,36.6,26.6
		c10.8,12.5,11.6,16.6,12.4,20.6l0.1,0.3c0.7,3.7,7.1,17.2,15.3,22.7c1.6,1.1,3.4,2.4,5.6,4c9.8,7.1,26.1,19.1,43.8,22.9
		c13.8,3,25.2,2.5,32.1-1.3c4.4-2.4,12.8-7.4,14.1-8.7c1.7-1.7,6.5-4.8,12.5-4.3c6.3,0.5,12.2,4.7,17.5,12.3
		c11.5,16.4,17,27.2,20,33c0.4,0.8,0.8,1.5,1.1,2.2l0.4,0.8c2.8,5.3,8.5,16.4,16.9,16.6c10.8,0.3,38.7-5.7,51.8-25.1
		c13.9-20.5,41-68.8,45-79.1c4.1-10.5,12.5-20.2,12.9-20.6c2.8-3,10.6-7.4,20.2-2.5c8,4.1,14.8,6.1,19.4,5.8
		c4-0.3,15.2-1.3,19.6-2.4c1.1-0.3,2-0.6,2.8-0.8c2.8-0.9,4.8-1.5,10.1-1.3c6.8,0.3,13.9,5.6,16.5,7.6l0.7,0.5
		c7,5.3,15,7.6,23.8,6.9c12.7-1.1,11.7-17.7,11.7-18.4l0-0.2l0-0.2c0.3-1.8,3.6-18,12.4-18.1l0.1,4c-4.4,0.1-7.6,9.7-8.5,14.6
		c0.4,7.4-2.3,21.3-15.3,22.4c-9.9,0.8-18.8-1.7-26.6-7.7l-0.7-0.5c-2.2-1.6-8.7-6.6-14.3-6.8c-4.6-0.2-6.2,0.3-8.7,1.1
		c-0.8,0.3-1.8,0.5-2.9,0.8c-5.7,1.5-20.2,2.6-20.4,2.6c-5.5,0.4-12.7-1.7-21.6-6.2c-9.2-4.7-15.1,1.3-15.4,1.6
		c0,0-8.3,9.6-12.1,19.4c-4.1,10.5-31.5,59.2-45.5,79.9C1018.4,143.5,989.6,150,977.7,150z"/>
	<path opacity="0.35" fill="#FFFFFF" d="M990.5,114.1c-5.8,0-10.9-2.5-15.2-7.6c-0.1-0.2-0.3-0.3-0.4-0.5c-0.2-0.3-0.6-0.6-1-1.1
		c-3-3.3-10-11.1-17.3-21.2c-8.2-11.4-19.2-19.1-25.2-19.8c-5.3-0.7-13.3,3.8-17.2,5.9c-0.4,0.2-0.7,0.4-1,0.6
		c-3.3,1.8-22.9,2.9-34.4,0c-7.9-1.9-19-3.9-28.8-5.6c-4.3-0.8-8.3-1.5-11.9-2.1c-12-2.3-22.4-14.2-25.1-19.8l-0.3-0.7
		c-2.7-5.7-8.3-17.5-11.7-26.6c-3.4-9.2-15.4-15.2-15.5-15.2l0.4-0.9c0.5,0.2,12.5,6.2,16,15.8c3.4,9.1,9,20.9,11.7,26.5l0.3,0.7
		c2.6,5.4,12.7,17,24.4,19.2c3.6,0.7,7.6,1.4,11.9,2.1c9.8,1.7,21,3.7,28.9,5.6c11.1,2.7,30.5,1.7,33.6,0c0.3-0.2,0.6-0.3,1-0.6
		c3.9-2.2,12.2-6.7,17.8-6c6.1,0.8,17.5,8.5,25.8,20.2c7.3,10.1,14.3,17.8,17.3,21.1c0.4,0.4,0.7,0.8,1,1.1c0.1,0.1,0.2,0.3,0.4,0.5
		c7.4,8.8,17.5,9.6,30,2.2c17.9-10.6,28.1-19.5,32.1-28c0.9-2,2.3-5.6,4-10.2c4.9-13.2,12.2-33,19.9-42.1
		c8.9-10.6,20.8-22.9,33.9-23.2c7.4-0.1,10.2,1.3,12.5,2.5c1.4,0.8,2.7,1.4,4.8,1.5c3.3,0.1,9.2-0.9,13.9-1.7
		c3.4-0.6,6.4-1.1,7.9-1.1c1.4,0,3.4,0.6,6,1.4c3.8,1.2,9.1,2.8,15.3,3.1c3.8,0.2,6.6,0.2,8.8,0.3c3.8,0.1,5.8,0.1,8.1,0.7
		c1.3,0.4,3.1,1.2,5.2,2.2c3.5,1.7,7.9,3.8,10.7,3.8c4.1,0,16.3-10.8,19.8-17.5l0.9,0.5c-3.5,6.7-15.8,18-20.7,18
		c-3,0-7.3-2-11.1-3.9c-2-0.9-3.8-1.8-5-2.2c-2.1-0.6-4.2-0.6-7.8-0.7c-2.2,0-5-0.1-8.8-0.3c-6.3-0.3-11.7-1.9-15.5-3.1
		c-2.5-0.8-4.4-1.4-5.7-1.4c-1.4,0-4.3,0.5-7.7,1.1c-5,0.9-10.6,1.8-14.1,1.7c-2.4-0.1-3.8-0.8-5.2-1.6c-2.3-1.2-4.8-2.5-12-2.4
		c-12.7,0.3-24.4,12.3-33.1,22.8c-7.5,9-14.8,28.8-19.7,41.9c-1.7,4.6-3.1,8.3-4,10.3c-4.1,8.7-14.4,17.8-32.4,28.5
		C1000.7,112.4,995.3,114.1,990.5,114.1z"/>
	<path opacity="0.35" fill="#FFFFFF" d="M1005.4,78.6c-9,0-19.7-3.5-26.3-11.7c-10-12.6-23.4-17.8-29.9-18.3
		c-6.5-0.5-16.2-0.1-39.1,6.7c-22.7,6.7-31.7,2.2-32.1,2c-2.2-0.8-55-20-56.5-32.7c-1.5-12.3-7.6-24.2-7.7-24.3l0.9-0.5
		c0.1,0.1,6.3,12.2,7.8,24.7c1.4,12.1,55.4,31.7,55.9,31.9c0.1,0.1,9.2,4.5,31.4-2.1c23-6.8,32.9-7.3,39.4-6.8
		c6.7,0.5,20.4,5.9,30.6,18.7c6.8,8.5,26.1,16,37.8,8.4c7.9-5.1,13.3-13.1,13.5-35.6c0.2-13.5,6.6-21.6,11.7-28.2
		c3.3-4.2,5.9-7.4,5.8-10.8l1,0c0.1,3.7-2.6,7.2-6,11.5c-5.1,6.4-11.4,14.4-11.5,27.6c-0.3,22.9-5.8,31.1-14,36.4
		C1015.2,77.4,1010.5,78.6,1005.4,78.6z"/>
	<path opacity="0.35" fill="#FFFFFF" d="M994.2,41.5c-8,0-14-7.2-16.7-10.3c-0.5-0.6-0.9-1.1-1.1-1.3c-1.8-1.5-10.5-3.2-30.8,1.4
		c-14.2,3.2-14.6,2.1-14.8,1.4c-0.3-0.8,0.9-1.7,2-2.3c-0.2-0.4-2.7-2.7-35-3.1C857,26.8,832.9,0.6,832.6,0.3l0.7-0.7
		c0.2,0.3,24.1,26.1,64.4,26.6c35.1,0.4,35.8,3,36,3.8c0.1,0.5-0.2,1-0.5,1.1c-0.7,0.4-1.3,0.8-1.5,1.1c0.5,0.2,3,0.4,13.6-2
		c25.5-5.7,31.1-1.6,31.7-1.1c0.3,0.2,0.7,0.7,1.2,1.4c3.2,3.9,11.9,14.1,22.7,8.1c12.3-6.9,17.4-29,18-38.6l1,0.1
		c-0.3,4.4-1.6,12.3-4.5,20.1c-2.4,6.6-6.8,15.3-14,19.3C998.9,40.9,996.5,41.5,994.2,41.5z"/>
	<path opacity="0.35" fill="#FFFFFF" d="M1041.3,150.3l-0.7-0.7c40.7-36.7,48.3-80.9,51.6-99.8c0.5-2.8,0.9-4.9,1.2-6.5
		c1-4.3,2.2-6.6,3.9-7.4c1.8-0.9,3.7-0.1,6.2,0.9c1.8,0.7,3.8,1.5,6.2,1.9c6,0.9,8.2,0.7,17.4-0.2c3.7-0.4,8.8-0.9,15.8-1.5
		c18.5-1.6,28.6,6.2,34.6,10.8c1.8,1.4,3.2,2.4,4.3,2.9c5.7,2.5,13.8,4.4,30.7,0c17.9-4.7,24.6-32.7,24.6-32.9
		c0.4-2.1,2.7-7.2,5.1-9.6c1.8-1.8,4.6-1.3,6.7-1c0.8,0.1,1.5,0.2,1.8,0.2c0.4-0.1,1.3,0,3.1,0.1c3.9,0.3,12.1,1.1,23.7-0.1
		c15.6-1.6,22.7-7.5,22.7-7.5l0.7,0.8c-0.3,0.2-7.3,6.1-23.3,7.8c-11.6,1.2-19.9,0.5-23.8,0.1c-1.4-0.1-2.5-0.2-2.8-0.1
		c-0.5,0.1-1.3,0-2.2-0.2c-1.9-0.3-4.4-0.7-5.9,0.7c-2.2,2.2-4.5,7.1-4.9,9.1c-0.2,1-2,8.2-6.1,15.8c-5.2,9.8-11.9,16-19.3,17.9
		c-17.2,4.5-25.5,2.5-31.3,0c-1.3-0.6-2.7-1.7-4.5-3.1c-5.9-4.5-15.8-12.1-33.9-10.6c-7,0.6-12.1,1.1-15.8,1.5
		c-9,0.9-11.5,1.2-17.7,0.2c-2.5-0.4-4.6-1.2-6.4-1.9c-2.3-0.9-4-1.6-5.4-0.9c-1.3,0.7-2.4,2.9-3.3,6.8c-0.4,1.6-0.7,3.7-1.2,6.5
		C1090,68.9,1082.3,113.3,1041.3,150.3z"/>
	<path opacity="0.35" fill="#FFFFFF" d="M1065.4,150.3l-0.8-0.6c0.2-0.3,19-25.9,26.9-51.5c7.8-25.2,22.2-43.5,27.9-47.3
		c5.4-3.6,21.5-2.2,30.8,2.6c2.1,1.1,4.2,2.4,6.4,3.9c8.6,5.5,19.3,12.4,38.6,11.4c22.9-1.2,39.4-11.1,44.9-19.7
		c0.9-1.4,1.9-3.1,3-5.2c5.3-9.6,13.3-24.1,25.5-22.4c4.9,0.7,8.4,3.2,10.3,7.3c3.2,6.9,0.9,16.7-3,22.8c-1.7,2.6-3.7,6.1-5.8,9.7
		c-6.1,10.6-13.8,23.8-21,30.7c-10.1,9.7-15.8,14.2-46.9,18.5c-29.4,4-61.8,11.9-79.3,39.8l-0.8-0.5c17.8-28.2,50.4-36.2,80-40.2
		c32.1-4.4,37.2-9.3,46.4-18.2c7.1-6.8,14.7-20,20.8-30.5c2.1-3.7,4.1-7.1,5.8-9.7c3.7-5.9,5.9-15.3,2.9-21.9c-1.8-3.8-5-6-9.6-6.7
		c-11.4-1.6-19.3,12.5-24.5,21.9c-1.2,2.1-2.1,3.9-3,5.3c-5.7,8.8-22.5,18.9-45.7,20.2c-19.6,1.1-30.5-5.9-39.2-11.6
		c-2.2-1.4-4.3-2.8-6.4-3.8c-9.8-5.1-25.1-5.8-29.8-2.7c-4.2,2.8-19.2,19.8-27.5,46.7C1084.5,124.3,1065.6,150,1065.4,150.3z"/>
	<path opacity="0.35" fill="#FFFFFF" d="M1152.3,150.4l-0.6-0.8c0.2-0.2,23.6-17.2,66.8-28.7c38.9-10.4,46-21.4,48.3-25.1
		c0.3-0.5,0.5-0.8,0.8-1.1c0.3-0.4,0.9-1.6,1.7-3.1c3.9-7.9,14.3-29,35.2-37.4c7.9-3.1,13.8-3.3,17.5-0.5c5.6,4.2,4.7,13.9,4.3,17.6
		c0,0.3-0.1,0.6-0.1,0.8c-0.1,0.9-0.4,3.3-0.8,6.6c-1.4,11.5-4.1,33-3.6,40.7c0.3,5.2,3.3,12.1,5.9,18.2c2.4,5.4,4.4,10.1,4.1,12.6
		l-1-0.1c0.3-2.2-1.8-7-4-12.1c-2.7-6.1-5.7-13.1-6-18.5c-0.5-7.8,2.1-29.3,3.6-40.9c0.4-3.3,0.7-5.6,0.8-6.5c0-0.2,0-0.5,0.1-0.8
		c0.4-3.5,1.3-12.8-3.9-16.7c-3.4-2.6-9-2.4-16.5,0.7c-20.6,8.2-30.8,29-34.7,36.9c-0.9,1.8-1.4,2.9-1.8,3.3c-0.2,0.2-0.4,0.6-0.7,1
		c-9.6,15-38.2,22.6-48.9,25.5C1175.7,133.3,1152.5,150.2,1152.3,150.4z"/>
	<path opacity="0.35" fill="#FFFFFF" d="M1225,151.6l-2-3.5c0.3-0.2,27.1-16,40.3-35.7c4.9-7.2,7.8-12.6,10.1-17
		c4.2-7.9,6.6-12.3,15-16.6c10.7-5.5,15.6-6.6,17-6.9c1.2-0.5,4.9-1.9,8,0.1c2.6,1.7,3.7,5.2,3.3,10.4l-0.1,2
		c-1,13.8-3.5,46.2,0.2,65.1l-3.9,0.8c-3.8-19.4-1.4-51-0.3-66.1l0.1-2c0.3-3.5-0.3-5.9-1.5-6.7c-1.3-0.9-3.6-0.1-4.3,0.3l-0.3,0.2
		l-0.4,0c0,0-4.3,0.5-15.9,6.5c-7.3,3.8-9.2,7.3-13.3,15c-2.4,4.4-5.3,9.9-10.3,17.3C1252.9,135.2,1226.1,151,1225,151.6z"/>
	<path opacity="0.35" fill="#FFFFFF" d="M1258.7,150.4l-0.7-0.7c0.2-0.2,18.4-17.4,24.6-28.5c3-5.3,5.5-7.7,7.5-7.1
		c1.9,0.6,2.8,3.8,2.4,8.7c-0.7,8.5,2,27,2,27.2l-1,0.1c0-0.2-2.7-18.8-2-27.4c0.4-4.9-0.6-7.4-1.7-7.7c-0.5-0.2-2.6-0.2-6.4,6.7
		C1277.1,132.8,1258.9,150.2,1258.7,150.4z"/>
	<path opacity="0.35" fill="#FFFFFF" d="M1370.3,150.4l-0.5-0.9c0.1-0.1,11.4-6.7,18.4-9.4c20.6-7.8,29.4-14.4,31.4-17.2
		c0.2-0.3,19.9-28.5,14.8-50.6c-1.8-8-6.8-14.2-14.7-18.4c-33-17.5-64.8-53.4-65.1-53.8l0.8-0.7c0.3,0.4,32,36.1,64.9,53.6
		c8.2,4.3,13.3,10.7,15.2,19c5.2,22.5-14.8,51.1-15,51.4c-0.6,0.8-6.3,7.9-31.9,17.5C1381.6,143.8,1370.4,150.4,1370.3,150.4z"/>
	<path opacity="0.35" fill="#FFFFFF" d="M1415.1,151.7l-2.2-3.3c0.1-0.1,9.5-6.3,17.1-17.3c14.7-21,17-40,18-56.2
		c0.1-2.1,0.3-3.9,0.5-5.6c1.1-10.4,1.3-12.6-21.2-25.6c-26.9-15.6-54.1-42-54.4-42.3l2.8-2.9c0.3,0.3,27.1,26.3,53.6,41.7
		c23.8,13.8,24.4,17.2,23.1,29.4c-0.2,1.6-0.3,3.4-0.5,5.4c-1,16.7-3.4,36.3-18.7,58.2C1425.2,145,1415.5,151.4,1415.1,151.7z"/>
	<path opacity="0.35" fill="#FFFFFF" d="M1453.4,150.2l-0.9-0.4c1.7-3.4,3.2-8.5,5.5-16.2l1.1-3.7c2.3-7.6,2.6-31.7,2.8-44.7
		c0.1-4,0.1-6.9,0.2-8.2c0.1-1.6,0.6-3.5,1.2-5.7c1.4-5.4,3.2-12.8,1.8-23.5c-1.9-14.5-11.8-13.6-15.5-13.3l-0.2,0
		c-3.8,0.3-7.6-1-15.4-8.8c-7.6-7.6-29.7-25.1-30-25.3l0.6-0.8c0.2,0.2,22.4,17.8,30,25.4c7.6,7.6,11.1,8.8,14.6,8.5l0.2,0
		c4-0.4,14.6-1.4,16.6,14.1c1.4,10.9-0.5,18.4-1.9,23.9c-0.6,2.2-1,4-1.1,5.6c-0.1,1.2-0.1,4.3-0.2,8.1c-0.2,13-0.5,37.2-2.8,45
		l-1.1,3.7C1456.7,141.6,1455.2,146.7,1453.4,150.2z"/>
	<path opacity="0.35" fill="#FFFFFF" d="M1473.2,150l-1-0.1c3.9-26.5,5.2-71.1,3.7-125.7c0-1.4-0.1-2.2-0.1-2.5c0-0.4,0.1-1,0.2-1.7
		c0.4-2.7,1-7.1-1.5-10.1c-1.6-1.9-4.4-3-8.3-3.1c-14.4-0.3-15.7-6.5-15.8-6.7l1-0.2l-0.5,0.1l0.5-0.1c0,0.1,1.3,5.6,14.8,5.9
		c4.2,0.1,7.2,1.2,9.1,3.4c2.8,3.3,2.2,8,1.8,10.9c-0.1,0.6-0.2,1.2-0.2,1.5c0,0.2,0,1.1,0.1,2.4
		C1478.4,78.7,1477.1,123.4,1473.2,150z"/>
	<path opacity="0.35" fill="#FFFFFF" d="M1513.4,150.2l-0.8-0.6c6.4-9,7.9-59.2-4.7-85.7c-12.2-25.8-15-63.5-15-63.8l1-0.1
		c0,0.4,2.8,37.9,15,63.5C1521,89.3,1520.9,139.8,1513.4,150.2z"/>
	<path opacity="0.35" fill="#FFFFFF" d="M1540.2,150l-1-0.2c1.8-7,3.9-20.4,3.7-44.3c0-0.5,0-0.9,0-1.1c0-4-3.2-39.9-14.9-63.8
		c-6.2-12.6-8-23-8.4-29.5c-0.4-7,0.6-11,0.7-11.2l1,0.3c0,0.2-4.1,16.1,7.6,40c11.9,24.1,15.1,60.2,15.1,64.2c0,0.2,0,0.6,0,1.1
		C1544.1,129.5,1542,142.9,1540.2,150z"/>
	<path opacity="0.35" fill="#FFFFFF" d="M1581.1,150.3l-0.8-0.5c6.9-10.9,1.8-21.2,0-23.4c-1.7-2.2-10.4-14.6-9.8-44.7
		c0.7-30.3-9.6-81-9.7-81.6l1-0.2c0.1,0.5,10.3,51.4,9.7,81.8c-0.6,29.7,7.8,41.9,9.6,44c0.7,0.8,2.6,4,3.4,8.5
		C1585.4,139.7,1584.2,145.3,1581.1,150.3z"/>
	<path opacity="0.35" fill="#FFFFFF" d="M1599.8,150.3l-0.9-0.5c6.5-11,2.8-19.3,0.1-25.3l-0.1-0.2c-0.5-1.1-1.2-2-2-3.1
		c-3.6-4.9-9.6-13.1-11.7-51.7c-2.6-46.7-12.7-69-12.8-69.3l0.9-0.4c0.1,0.2,10.3,22.7,12.9,69.6c2.2,38.3,8,46.4,11.5,51.2
		c0.8,1.1,1.6,2.1,2.1,3.3l0.1,0.2C1602.5,129.9,1606.5,138.8,1599.8,150.3z"/>
	<path opacity="0.35" fill="#FFFFFF" d="M1633.1,151l-3.5-2c0,0,2.7-5.4-5.8-15c-10.4-11.8-12.2-24.3-13.5-39.5
		c-1.4-16.7-5.7-54.8-9.3-67.3c-3.7-13-5.4-26.9-5.4-27.1l4-0.5c0,0.1,1.7,13.8,5.3,26.5c3.6,12.8,8,51.2,9.4,68
		c1.2,14.4,2.9,26.3,12.5,37.2C1637.3,143.3,1633.2,150.7,1633.1,151z"/>
	<path opacity="0.35" fill="#FFFFFF" d="M1649.5,150l-1-0.1c0.3-5-5-13.5-7.9-17.3c-0.2-0.3-0.6-0.7-1-1.2
		c-3.9-4.4-14.3-15.9-13.7-40.1c0.7-26.6-17.5-90.6-17.6-91.3l1-0.3c0.2,0.6,18.3,64.8,17.7,91.6c-0.6,23.8,9.6,35.1,13.5,39.4
		c0.5,0.5,0.9,0.9,1.1,1.3C1641.7,132.5,1649.9,143.4,1649.5,150z"/>
	<path opacity="0.35" fill="#FFFFFF" d="M1669.4,150.2l-0.9-0.5c0,0,1.4-2.8,0.9-7.3c-0.5-4.2-2.7-10.7-10.8-18.1
		c-18.2-16.7-21-41.6-21.2-42.6c-0.1-1.2-0.2-2.9-0.4-5c-0.7-9.2-1.8-24.5-5.5-33.9c-4.6-11.6-13-42.4-13-42.7l1-0.3
		c0.1,0.3,8.4,31.1,13,42.6c3.8,9.6,4.9,25,5.6,34.2c0.1,2,0.3,3.8,0.4,4.9c0.1,1,2.9,25.6,20.8,42
		C1675.4,138.4,1669.7,149.8,1669.4,150.2z"/>
	<path opacity="0.35" fill="#FFFFFF" d="M1680,150.3c-0.2-0.3-5.8-6.6-6.8-18c-1-11.3-5-18.6-11.2-26.7c-6.5-8.5-13.8-35.6-13.4-50
		c0.3-13.5-0.1-22.5-8.6-33.3c-8.4-10.7-5.1-22.4-5.1-22.5l1,0.3c0,0.1-3.2,11.3,4.9,21.7c8.7,11.1,9.1,20.3,8.8,34
		c-0.3,14.2,6.8,40.9,13.2,49.4c6.3,8.3,10.4,15.8,11.4,27.3c1,11,6.5,17.3,6.5,17.4L1680,150.3z"/>
	<path opacity="0.35" fill="#FFFFFF" d="M1693.2,149.9h-1c0-3.9-1.3-15-4-26.7c-2.5-10.6-7-25-14.2-33.8
		c-13.7-16.7-9.9-25.2-9.7-25.5c0.1-0.1,6.1-15.2-1.6-26.8c-7.9-11.9-16-36.6-16.1-36.9l1-0.3c0.1,0.2,8.1,24.8,15.9,36.6
		c8.1,12.1,1.8,27.6,1.7,27.8c0,0.1-3.7,8.3,9.6,24.5C1688.4,105.3,1693.2,142,1693.2,149.9z"/>
	<path opacity="0.35" fill="#FFFFFF" d="M1707.4,150.4c-0.3-0.3-3.2-3.3-4.2-31.7c-0.6-17.2-7.1-32.2-19.3-44.5
		c-0.4-0.4-0.7-0.7-0.9-0.9c-6.2-7.7-7.1-17.8-6.8-25c0.7-15.4-14.8-47.8-15-48.1l0.9-0.4c0.6,1.3,15.7,33,15,48.6
		c-0.3,7,0.6,16.9,6.5,24.3c0.2,0.2,0.4,0.5,0.8,0.9c15.5,15.5,19.2,33.1,19.6,45.1c1,27.7,3.7,30.9,3.8,31L1707.4,150.4z"/>
	<path opacity="0.35" fill="#FFFFFF" d="M1724.5,150.5c-0.4,0-1.1-0.1-1.8-0.8c-2.7-2.6-2.7-11.1,0.2-24.5
		c3.8-17.7,0.1-33.3-10.5-44.9c-3.8-4.1-9.5-15.1-9.8-20c-0.3-4.7-3.4-14.6-7.6-20.1c-2.6-3.4-5-8.2-7.5-13.4
		c-1.8-3.7-3.7-7.5-5.9-11.3c-5.4-9.4-3.8-15.5-3.7-15.7l1,0.3c0,0.1-1.5,5.9,3.6,15c2.2,3.8,4.1,7.7,5.9,11.4
		c2.5,5.1,4.9,9.9,7.4,13.2c4.5,5.8,7.4,15.9,7.8,20.6c0.3,4.6,6,15.5,9.5,19.4c10.7,11.7,14.6,28,10.8,45.8
		c-3.7,17.4-1.9,22.2-0.5,23.6c0.7,0.6,1.3,0.5,1.3,0.5l0.3,1C1724.9,150.5,1724.7,150.5,1724.5,150.5z"/>
	<path opacity="0.35" fill="#FFFFFF" d="M1807.5,150.2c-3.7-9.6-8.9-14.3-12.6-16.5c-4-2.4-7.2-2.5-7.2-2.5l-0.1,0
		c-1-0.2-23.7-5.7-25.7-6.3c-2.1-0.7-12.4-7.6-8.3-21.3c4-13.2,4-18.8-3.6-33c-5.8-10.8-22.9-25.7-31.1-32.9c-3.2-2.8-4.6-4-4.9-4.5
		c-0.1-0.2-0.4-0.6-0.8-1c-2.5-2.9-8.2-9.7-2.9-18.9c1.9-3.3,2.5-6.2,1.6-8.6c-1.1-3.1-4.3-4.4-4.3-4.4l0.3-0.9
		c0.1,0.1,3.7,1.4,4.9,5c1,2.7,0.4,5.9-1.7,9.4c-5,8.6,0.5,15,2.8,17.7c0.4,0.5,0.7,0.8,0.9,1.1c0.2,0.3,2.3,2.1,4.7,4.2
		c8.3,7.2,25.5,22.2,31.4,33.1c7.8,14.5,7.8,20.2,3.7,33.7c-3.9,13,5.7,19.4,7.7,20c1.9,0.6,24.4,6,25.6,6.3c0.5,0,3.6,0.3,7.6,2.6
		c3.9,2.3,9.3,7.1,13.1,17L1807.5,150.2z"/>
	<path opacity="0.35" fill="#FFFFFF" d="M1795.4,109.2c-0.5,0-1,0-1.4,0c-5-0.2-8.7-1.8-11.2-4.6c-3.7-4.2-4.9-11.3-3.9-23.6
		c1.3-16.4-1.5-21.8-7.8-27.2c-6.8-5.8-12.5-18.7-13.7-23.9c-1.2-5.3-6.9-13-12-17.7c-5.5-5.1-3.9-11.9-3.8-12.2l1,0.2
		c0,0.1-1.5,6.5,3.5,11.2c5.2,4.9,11.1,12.7,12.3,18.3c1.1,5.2,6.7,17.8,13.3,23.4c6.6,5.6,9.5,11.3,8.2,28.1
		c-1,12,0.1,18.8,3.6,22.8c2.3,2.7,5.8,4.1,10.5,4.3c14,0.7,20.2-8.8,20.8-14.9c0.7-7.1,2.2-14.7,11.8-23.6c9.6-8.9,16-13.7,16-13.7
		c0.7-0.4,15.3-9.4,7.8-28.8c-7.7-20.1-0.9-27.3-0.6-27.6l0.7,0.7c-0.1,0.1-6.7,7.2,0.8,26.6c7.7,20.2-8.1,29.8-8.2,29.9
		c0,0-6.4,4.7-15.9,13.6c-9.4,8.7-10.8,16.2-11.5,23C1815.2,99.6,1809.1,109.2,1795.4,109.2z"/>
	<path opacity="0.35" fill="#FFFFFF" d="M1790.4,30.3c-7.5,0-11.5-2.6-13.6-4.9c-2.9-3.2-3.4-7.2-2.9-9.8c1-5.6,2.6-15.7,2.7-15.8
		l1,0.2c0,0.1-1.7,10.2-2.7,15.8c-0.4,2.4,0,6.1,2.7,9c2.2,2.4,6.7,5.2,15.8,4.4c11.7-1,19.8-4,23.5-8.7c2-2.5,2.6-5.6,2-9
		c-1.2-7.1-0.3-10,0.7-11.2c0.7-0.8,1.4-0.8,1.5-0.8v1c0,0-0.4,0-0.8,0.5c-0.7,0.9-1.6,3.3-0.4,10.3c0.7,3.8-0.1,7.1-2.2,9.8
		c-3.8,5-12.2,8.1-24.2,9.1C1792.3,30.3,1791.3,30.3,1790.4,30.3z"/>
	<path opacity="0.35" fill="#FFFFFF" d="M1861.1,150.2l-0.9-0.4c2.5-6.1,1.5-9.6,0.6-12.7c-0.2-0.8-0.5-1.6-0.6-2.4
		c-0.1-0.8-1.2-2.4-2.5-4.4c-4.4-6.7-12.7-19.1-11.5-36.4c1.3-17.7,7.2-24.7,13-31.5c1.7-2,3.3-3.9,4.8-6.1c0.4-0.6,0.8-1.2,1.2-1.8
		c5.8-8.3,8.7-12.4,4-27.8c-2.6-8.7-1.1-15.7,0.6-19.9c1.9-4.6,4.4-7.1,4.5-7.2l0.7,0.7c-0.1,0.1-9.7,10-4.9,26.2
		c4.8,15.9,1.8,20.1-4.2,28.7c-0.4,0.6-0.8,1.1-1.2,1.7c-1.5,2.2-3.2,4.2-4.8,6.1c-5.6,6.7-11.5,13.6-12.7,30.9
		c-1.2,16.9,6.9,29.2,11.3,35.8c1.5,2.3,2.5,3.8,2.7,4.8c0.1,0.7,0.4,1.5,0.6,2.3C1862.6,139.9,1863.7,143.8,1861.1,150.2z"/>
	<path opacity="0.35" fill="#FFFFFF" d="M1886.9,150.2l-1-0.2c0.2-0.7,0.3-1.3,0.5-1.9c1.1-4.3,1.5-5.9-1.9-14.8l-0.1-0.2
		c-4.3-11.1-14.3-36.9-15-44c-0.7-7.3,1.2-11.5,9.4-26.3c6.5-11.8,5.6-17.6,4.4-25.1c-0.3-2-0.6-4-0.8-6.3
		c-1-11.3,1.6-13.2,11.5-20.1c9.5-6.7,8.5-11.2,8.5-11.2l1-0.3c0.1,0.2,1.3,5.2-8.9,12.3c-10,7-12.1,8.5-11.1,19.2
		c0.2,2.3,0.5,4.3,0.8,6.2c1.2,7.6,2.1,13.7-4.6,25.7c-8.1,14.6-9.9,18.7-9.3,25.7c0.7,6.9,11,33.6,14.9,43.7l0.1,0.1
		c3.6,9.3,3.2,11,2,15.5C1887.3,148.9,1887.1,149.5,1886.9,150.2z"/>
	<path opacity="0.35" fill="#FFFFFF" d="M1901.9,150.2l-1-0.3c0.1-0.2,6.3-24-8.7-40.9c-8-9.1-9.8-17.2-9.9-22.5
		c-0.1-5.7,1.7-9.3,1.8-9.4c0-0.2,7.7-22.2,15-41.9c7.3-20,20.1-23.5,20.7-23.6l0.2,1c-0.1,0-12.8,3.5-20,23
		c-7.2,19.8-14.9,41.8-15,42c-0.1,0.2-7,14.1,7.9,30.9C1908.4,125.7,1902,149.9,1901.9,150.2z"/>
	<path opacity="0.35" fill="#FFFFFF" d="M1914.9,150.2c-0.1-0.2-2.7-5.9-3.4-17.6c-0.4-7,0.3-16.3,0.8-24.5
		c0.4-5.5,0.7-10.2,0.7-13.2c-0.1-2.8-1.1-5.7-2.2-9.1c-1.9-5.5-4.3-12.3-4.3-22.6c0-16.7,13.1-27,13.2-27.1l0.6,0.8
		c-0.1,0.1-12.8,10.1-12.8,26.3c0,10.1,2.3,16.8,4.2,22.2c1.2,3.5,2.2,6.5,2.3,9.4c0.1,3-0.3,7.8-0.7,13.3
		c-0.6,8.2-1.2,17.5-0.8,24.4c0.7,11.4,3.3,17.1,3.3,17.2L1914.9,150.2z"/>
</g>
</svg>
