<?xml version="1.0" encoding="utf-8"?>
<!-- Generator: Adobe Illustrator 18.1.1, SVG Export Plug-In . SVG Version: 6.00 Build 0)  -->
<!DOCTYPE svg PUBLIC "-//W3C//DTD SVG 1.1//EN" "http://www.w3.org/Graphics/SVG/1.1/DTD/svg11.dtd">
<svg version="1.1" xmlns="http://www.w3.org/2000/svg" xmlns:xlink="http://www.w3.org/1999/xlink" x="0px" y="0px"
	 viewBox="0 0 1920 150" enable-background="new 0 0 1920 150" xml:space="preserve">
<g id="Layer_3">
	<linearGradient id="SVGID_1_" gradientUnits="userSpaceOnUse" x1="0" y1="75" x2="1920" y2="75">
		<stop  offset="0" style="stop-color:#1868B1"/>
		<stop  offset="1" style="stop-color:#9C55A0"/>
	</linearGradient>
	<rect y="0" fill="url(#SVGID_1_)" width="1920" height="150"/>
</g>
<g id="Layer_2">
	<path opacity="0.35" fill="#FFFFFF" d="M92.1,98.8c-1.9,0-4,0-6.2-0.1c-12.2-0.4-23.5-1.9-32-4.4C43.3,91.1,36.1,80,31.9,71.2
		c-1.1-2.3-4.4-8.7-10.5-17C16.1,46.9,0.2,32.8,0,32.7v-5.4c0.7,0.6,19.1,16.9,24.6,24.5c6.1,8.3,9.4,14.6,10.9,17.7
		c5.4,11.4,12.4,18.8,19.6,20.9c8.2,2.4,19.2,3.9,31,4.3c19.5,0.6,26.2-1.4,31.3-5c2-1.4,9.4-5.7,21.2-2.1l0.8,0.3
		c6,1.8,9.2,2.9,12.8-4.2c2.6-5.1,4.3-12,5.9-18c1.1-4.4,2.2-8.6,3.5-11.8c1.4-3.4,3.3-9.4,5.3-15.8c2.3-7.3,4.7-14.8,6.6-19.4
		c2.6-6.4,2.9-12.9,1.1-18.6l3.9,0c2.2,6.6,1.8,12.8-1.3,20.1c-1.8,4.4-4.2,11.9-6.5,19.1c-2,6.4-4,12.5-5.4,16.1
		c-1.2,3-2.2,7-3.3,11.3c-1.6,6.2-3.4,13.3-6.2,18.8c-5.1,10.1-11.7,8.1-17.5,6.3l-0.8-0.3c-10.1-3.1-16.1,0.4-17.8,1.6
		C114.5,96.6,108.1,98.8,92.1,98.8z"/>
	<path opacity="0.35" fill="none" stroke="#FFFFFF" stroke-miterlimit="10" d="M23.2,0c0,0,4.5,13.8,17,23.5s21.3,12.2,21.3,12.2
		s7.7,1.3,11.2-1.2s11.5-6.2,18.3-7.3c6.8-1.2,16.5-2.5,25.2-2.7s11,4.3,11,4.3s7,6.7,11.2-4.2C142.5,13.8,144.8,8,146,0"/>
	<path opacity="0.35" fill="none" stroke="#FFFFFF" stroke-miterlimit="10" d="M45.7,0c0,0,21,13.3,36.2,13.7C97,14,111.8,6,121.5,0
		"/>
	<path opacity="0.35" fill="#FFFFFF" d="M116.7,147.7c-4.9,0-10.8-1.4-19.7-4.5c-10.5-3.7-41.8-24.2-47.5-28.1
		c-5.4-3.7-6.6-3.6-13.1-2.9l-1.7,0.2c-7.8,0.8-12.8-6.3-14.7-8.9c-0.2-0.2-0.3-0.5-0.5-0.6c-1.6-2.2-7.1-12.9-9.4-20.5
		C7.9,74.8,0.1,70.6,0,70.6v-1.2c0.3,0.2,8.8,4.7,11.1,12.6c2.4,7.9,7.9,18.3,9.3,20.2c0.1,0.2,0.3,0.4,0.5,0.6
		c2,2.8,6.6,9.2,13.7,8.5l1.7-0.2c6.7-0.7,8.1-0.9,13.8,3.1c5.6,3.9,36.8,24.3,47.2,27.9c10.5,3.7,16.7,4.9,22.1,4.3
		c5.3-0.6,23.7-6.6,28.8-13c1.8-2.2,4.4-5.3,7.1-8.5c5.3-6.3,11.4-13.4,14.5-18.1c4.6-6.8,7.9-14.1,10.3-22.9
		c2.4-8.8,12.7-33.7,19.5-46.3c6.6-12.2,6.4-20.8,5.9-24c-0.1-0.4-0.1-0.9-0.2-1.5c-0.3-3.1-1-9-3.2-12.2h1
		c2.3,3.4,2.8,8.9,3.1,12.1c0.1,0.6,0.1,1.1,0.2,1.5c0.4,3.3,0.7,12.2-6.1,24.6c-6.8,12.5-17.1,37.3-19.5,46.1
		c-2.4,8.9-5.7,16.2-10.4,23.1c-3.2,4.7-9.2,11.9-14.6,18.2c-2.7,3.2-5.3,6.3-7.1,8.5c-5.2,6.6-23.5,12.6-29.5,13.4
		C118.6,147.6,117.7,147.7,116.7,147.7z"/>
	<path opacity="0.35" fill="#FFFFFF" d="M24.7,150.4c-7.6-1.7-14.1-7.4-18.1-11.8c-4.4-4.8-6.6-8.6-6.6-8.7l0-1.8
		c0.1,0.2,10.8,18.2,24.9,21.3L24.7,150.4z"/>
	<path opacity="0.35" fill="none" stroke="#FFFFFF" stroke-miterlimit="10" d="M41.2,150c0,0,5.8-2.8,11-2.8c5.2,0,7.7,2.7,7.7,2.7"
		/>
	<path opacity="0.35" fill="none" stroke="#FFFFFF" stroke-miterlimit="10" d="M221,0c0,0,3.2,4.5,3.7,11.5s-1.8,11-2.8,14.8
		s-3.8,13-4,21.2c-0.2,8.2-10.3,33.2-13,38c-2.7,4.8-14.8,31.5-28.7,47.5c-13.8,16-13,16.9-13,16.9"/>
	<path opacity="0.35" fill="none" stroke="#FFFFFF" stroke-miterlimit="10" d="M237.8,0c0,0,0.5,7.4,5,18s4.3,21,3.8,24.5
		s-6.3,35.7-25.8,65.3s-21.9,27.7-26.9,32c-4.9,4.3-8.8,7.5-10.3,10.2"/>
	<path opacity="0.35" fill="none" stroke="#FFFFFF" stroke-miterlimit="10" d="M275,0c0,0-3.7,7.5-3.7,17.3s-1.7,30.3-6.5,52.8
		C260,92.7,257.2,95,254.3,101s-4.5,10.3-14.3,18.3s-24.6,20-33.6,30.7"/>
	<path opacity="0.35" fill="none" stroke="#FFFFFF" stroke-miterlimit="10" d="M245.7,149.9c0,0,5.7-7.6,13.8-7.2
		c8.2,0.3,14.8,7.2,14.8,7.2"/>
	<path opacity="0.35" fill="none" stroke="#FFFFFF" stroke-miterlimit="10" d="M345.8,0c0,0,1.3,12-6.2,30.7s-10.2,25.7-11.7,31
		s-4.2,13.2,1,28.8s13.5,27.6,14.5,59.4"/>
	<path opacity="0.35" fill="none" stroke="#FFFFFF" stroke-miterlimit="10" d="M370.2-0.1c0,0,0.8,26.9-3.3,41.1
		c-4.2,14.2-9.2,18.5-9.2,18.5s-7,5.1-2.5,15.4s7.2,9.6,6.8,16.6c-0.4,7-2.3,9.2-3.1,11.8c-0.8,2.7-3.7,8.3,2,15.2
		c5.7,6.8,5.7,12.5,5.5,13.8c-0.2,1.3,0,7.8-5.2,17.6"/>
	<path opacity="0.35" fill="none" stroke="#FFFFFF" stroke-miterlimit="10" d="M395.5,0c0,0,2.3,12-2.2,21.2S388,34.3,386,37.7
		c-2,3.3-10,16-9.3,26.3c0.7,10.3,4.2,18,6,24.5c1.8,6.5,3.3,12.2,2.5,18.7c-0.8,6.5-1.2,11.2-4.5,18.2c-3.3,7-4.1,11.8-4,15.3
		s2.7,7.7,2.5,9.3"/>
	<path opacity="0.35" fill="none" stroke="#FFFFFF" stroke-miterlimit="10" d="M408,0c0,0,1.8,13.7-1,21.7s-4,11.2-6.3,17.3
		c-2.3,6.2-6.5,13.3-2.2,26s7.2,7.8,6,19s-5.6,15.5-7.9,24.5c-2.3,9-2.3,17.8-1.8,23.8c0.5,6,2.3,14.8,2.3,17.6"/>
	<path opacity="0.35" fill="none" stroke="#FFFFFF" stroke-width="4" stroke-miterlimit="10" d="M433.3,0c0,0-9.8,19.8-10.7,35.8
		c-0.8,16-1.8,19.5-1.8,19.5s-2.3,5.3,5,7c7.3,1.7,5.2,12,3.8,15.2c-1.3,3.2-11.7,21-13.5,41c-1.8,20-1.8,21.3-1.7,23.7
		c0.2,2.3,4.2,4.6,4,7.7"/>
	<path opacity="0.35" fill="none" stroke="#FFFFFF" stroke-miterlimit="10" d="M472.8,0c0,0-1.9,31.1-14.7,54.8
		c-11.9,22.2-12.5,23-14.8,35.5c-2.3,12.5,2.2,52,3.3,59.6"/>
	<path opacity="0.35" fill="none" stroke="#FFFFFF" stroke-miterlimit="10" d="M487,149.9c0,0-4.8-25.4,1.2-39.9s19-22.8,30-26
		s21,2,24.5,5.8s13.5,13.8,15.5,15.2s22.2,13,37,15.8s16,1.8,16,1.8s9.8-3.2,10.5,10.5s0,17,0,17"/>
	<path opacity="0.35" fill="none" stroke="#FFFFFF" stroke-miterlimit="10" d="M504.2,150c0,0,1.5-23.5,1.5-29.2s3.8-17.2,11.2-19.2
		s16.5,4.5,19.5,8.8s20,24.2,26.8,28.5S578.8,145,579,150"/>
	<path opacity="0.35" fill="none" stroke="#FFFFFF" stroke-width="4" stroke-miterlimit="10" d="M527.8-0.1c0,0,1,22.6,8.5,38.3
		s18.2,24.5,28.8,28.5s51.2,18.2,65,24.5s42.2,20.5,60.8,58.8"/>
	<path opacity="0.35" fill="none" stroke="#FFFFFF" stroke-miterlimit="10" d="M543-0.1c0,0,11,29.1,39,44.3S640.5,64,640.5,64
		s31.8,3.3,54.5,37.1s19.2,48.9,19.2,48.9"/>
	<path opacity="0.35" fill="none" stroke="#FFFFFF" stroke-miterlimit="10" d="M563.8,0c0,0,12.5,33.8,45.5,40.5s47.5,7.2,47.5,7.2
		s28.5-1,40.8,25.5s16,46.6,33.2,76.6"/>
	<path opacity="0.35" fill="none" stroke="#FFFFFF" stroke-miterlimit="10" d="M587.5,0c0,0,8.8,21.5,43.2,22.8s37,2.2,39.2,2.2
		s31.4,0.2,44.4,35s12.1,44.2,16.3,54.2s7.5,22,20.5,35.8"/>
	<path opacity="0.35" fill="none" stroke="#FFFFFF" stroke-miterlimit="10" d="M615.8,0c0,0,12.2,10.2,38.5,9s6-1.7,0-9.1"/>
	<path opacity="0.35" fill="none" stroke="#FFFFFF" stroke-miterlimit="10" d="M690.8-0.1c0,0,17.2,15.6,37.8,24.9s19.5,8.8,24.2,13
		s10.2,9.5,14.8,26.5s11.2,19.8,16,23.5s17.5,15.5,26.2,26s38,21.2,55.2,20s27-3.5,31.8-4.8s28.5-9.8,36.2,21"/>
	<path opacity="0.35" fill="none" stroke="#FFFFFF" stroke-miterlimit="10" d="M803.2,149.9c0,0-2.2-13.6,5.2-14.1s7.2-0.8,26.8,3.5
		s17.8,5.8,28.5,6s20.2-2.6,23.5-2.6c3.2,0.1,12.8,1.6,14.8,7.3"/>
	<path opacity="0.35" fill="none" stroke="#FFFFFF" stroke-miterlimit="10" d="M711.2,0c0,0,17,11.8,29.8,16.8s30,14.2,37,29.8
		s9.2,23.2,13.5,30s9.5,18,24,23.5s12.8,3.8,23.5,7.8s15.5,9,24.2,9.5s34-1.8,40.2-3.8s19.2-4.2,26.2-1.2s15.5,11.2,25,37.8"/>
	<path opacity="0.35" fill="none" stroke="#FFFFFF" stroke-width="4" stroke-miterlimit="10" d="M747.8-0.1c0,0,25.2,13.6,36,26.1
		s11.2,16.2,12,20s7.2,18,16.1,24S840,92.5,862,97.2s31.2-0.2,33.5-1.5s12.8-7.2,14.5-9s14-10.8,27,7.8s18.2,29.8,21,35
		s9,18.2,19,18.5s39.5-5.2,53.5-26s41.2-69.2,45.2-79.5s12.5-20,12.5-20s7-7.5,17.8-2s17,6.2,20.5,6s15.2-1.2,20-2.5s5.8-2.2,12.2-2
		s13.8,6,15.8,7.5s10.8,8.8,25.5,7.5s13.5-20.5,13.5-20.5s3-16.4,10.5-16.5"/>
	<path opacity="0.35" fill="none" stroke="#FFFFFF" stroke-miterlimit="10" d="M785.8,0c0,0,12.2,6,15.8,15.5s9.5,22,12,27.2
		s12.8,17.2,24.8,19.5s29.5,5,40.8,7.8s30.8,1.8,34,0s12.5-7.2,18.5-6.5s17.2,8.5,25.5,20s16.2,20,18.2,22.2s10.8,14.8,31,2.8
		s28.8-20.8,32.2-28.2s13.5-40,23.8-52.2s21.5-22.8,33.5-23s11.5,3.8,17.2,4s18.2-2.8,21.8-2.8s11,4,21.2,4.5s13.2,0,16.8,1
		s11.5,6,16,6s16.8-11,20.2-17.8"/>
	<path opacity="0.35" fill="none" stroke="#FFFFFF" stroke-miterlimit="10" d="M814.2,0c0,0,6.2,12,7.8,24.5s56.2,32.3,56.2,32.3
		s9,4.7,31.8-2.1s32.5-7.2,39.2-6.8s20.2,6,30.2,18.5s30,14,38.5,8.5s13.5-14,13.8-36s17.8-30,17.5-39"/>
	<path opacity="0.35" fill="none" stroke="#FFFFFF" stroke-miterlimit="10" d="M833,0c0,0,23.8,26.2,64.8,26.8s35.2,4,35.2,4
		s-8.8,4.8,12.5,0s29.5-2.8,31.2-1.2s11.5,16.8,24.5,9.5s17.8-30.5,18.2-39"/>
	<path opacity="0.35" fill="none" stroke="#FFFFFF" stroke-miterlimit="10" d="M1300.7,0c0,0-7,6-23,7.7s-25.3-0.3-26.7,0
		c-1.3,0.3-6-1.7-8.3,0.7c-2.3,2.3-4.7,7.3-5,9.3c-0.3,2-7.3,28.7-25,33.3c-17.7,4.7-25.7,2.3-31,0c-5.3-2.3-15-15.7-38.7-13.7
		s-24.7,3-33.3,1.7c-8.7-1.3-12.7-8.3-15.7,4.3s-6.3,64.5-53,106.6"/>
	<path opacity="0.35" fill="none" stroke="#FFFFFF" stroke-miterlimit="10" d="M1065,150c0,0,19-25.7,27-51.7s22.7-43.7,27.7-47
		c5-3.3,20.7-2.3,30.3,2.7s20.7,16.7,45.3,15.3c24.7-1.3,40.3-12.2,45.3-19.9s13.7-29.4,28-27.4c14.3,2,13.3,19.3,7,29.3
		c-6.3,10-17,31-26.7,40.3s-15,14-46.7,18.3c-31.7,4.3-62.7,13-79.7,40"/>
	<path opacity="0.35" fill="none" stroke="#FFFFFF" stroke-miterlimit="10" d="M1152,150c0,0,23-17,66.7-28.7
		c43.7-11.7,47.3-24,49.3-26.3s11.7-30.3,36.7-40.3s21.3,13.3,21,17.3c-0.3,4-5,37.3-4.3,47.3c0.7,10,10.7,25.7,10,30.7"/>
	<path opacity="0.35" fill="none" stroke="#FFFFFF" stroke-width="4" stroke-miterlimit="10" d="M1224,149.9c0,0,27.3-16,41-36.3
		s12-26.6,24.3-33c12.3-6.3,16.7-6.7,16.7-6.7s9.7-5,8.7,8.4s-3.9,47.5,0.1,67.6"/>
	<path opacity="0.35" fill="none" stroke="#FFFFFF" stroke-miterlimit="10" d="M1258.3,150c0,0,18.3-17.3,24.7-28.7s9.7-7.3,9,1.3
		s2,27.3,2,27.3"/>
	<path opacity="0.35" fill="none" stroke="#FFFFFF" stroke-miterlimit="10" d="M1355,0c0,0,31.7,36,65,53.7s4,64.2,0,69.7
		c-1.9,2.6-10.5,9.3-31.7,17.3c-7.1,2.7-18.3,9.3-18.3,9.3"/>
	<path opacity="0.35" fill="none" stroke="#FFFFFF" stroke-width="4" stroke-miterlimit="10" d="M1374.3,0c0,0,27,26.3,54,42
		s22.7,17,21.7,33s-3.2,35.5-18.3,57.2c-8,11.5-17.7,17.8-17.7,17.8"/>
	<path opacity="0.35" fill="none" stroke="#FFFFFF" stroke-miterlimit="10" d="M1404.3,0c0,0,22.3,17.7,30,25.3
		c7.7,7.7,11.3,9,15,8.7c3.7-0.3,14.3-1.7,16.3,13.7s-2.7,24-3,29.3c-0.3,5.3,0,43-3,53s-4.7,16-6.7,20"/>
	<path opacity="0.35" fill="none" stroke="#FFFFFF" stroke-miterlimit="10" d="M1450.9,0c0,0,1.1,6,15.3,6.3
		c14.2,0.3,10.2,12.7,10.2,15.3s3,83.1-3.7,128.2"/>
	<path opacity="0.35" fill="none" stroke="#FFFFFF" stroke-miterlimit="10" d="M1493.3,0c0,0,2.7,37.7,15,63.7
		c12.3,26,11.7,76.5,4.7,86.2"/>
	<path opacity="0.35" fill="none" stroke="#FFFFFF" stroke-miterlimit="10" d="M1520.7,0c0,0-4.3,16,7.7,40.3s15,61,15,64
		s0.7,28.8-3.7,45.6"/>
	<path opacity="0.35" fill="none" stroke="#FFFFFF" stroke-miterlimit="10" d="M1561.3,0c0,0,10.3,51,9.7,81.7s8.3,42.7,9.7,44.3
		c1.3,1.7,7.3,12.3,0,24"/>
	<path opacity="0.35" fill="none" stroke="#FFFFFF" stroke-miterlimit="10" d="M1572.8-0.1c0,0,10.2,22.1,12.9,69.4
		c2.7,47.3,11,48.7,13.7,54.7c2.7,6,6.7,14.7,0,26"/>
	<path opacity="0.35" fill="none" stroke="#FFFFFF" stroke-width="4" stroke-miterlimit="10" d="M1597.7-0.1c0,0,1.6,13.8,5.3,26.8
		s8,52,9.4,67.7c1.3,15.7,3.3,27.3,13,38.3c9.7,11,6,17.3,6,17.3"/>
	<path opacity="0.35" fill="none" stroke="#FFFFFF" stroke-miterlimit="10" d="M1608.7-0.1c0,0,18.3,64.4,17.7,91.4
		c-0.7,27,12.7,38.3,14.7,41c2,2.7,8.3,12,8,17.7"/>
	<path opacity="0.35" fill="none" stroke="#FFFFFF" stroke-miterlimit="10" d="M1619,0c0,0,8.4,31,13,42.7s5.3,32.7,6,39
		c0.7,6.3,5,27.7,21,42.3s10,26,10,26"/>
	<path opacity="0.35" fill="none" stroke="#FFFFFF" stroke-miterlimit="10" d="M1635.3-0.1c0,0-3.3,11.4,5,22.1
		c8.3,10.7,9,19.3,8.7,33.7c-0.3,14.3,7,41.3,13.3,49.7c6.3,8.3,10.3,15.7,11.3,27c1,11.3,6.7,17.7,6.7,17.7"/>
	<path opacity="0.35" fill="none" stroke="#FFFFFF" stroke-miterlimit="10" d="M1647-0.1c0,0,8,24.8,16,36.8s1.7,27.3,1.7,27.3
		s-4,8.3,9.7,25c13.7,16.7,18.3,53.8,18.3,60.9"/>
	<path opacity="0.35" fill="none" stroke="#FFFFFF" stroke-miterlimit="10" d="M1661.7,0c0,0,15.7,32.7,15,48.3
		c-0.7,15.7,5.3,23,6.7,24.7c1.3,1.7,19.3,16.7,20.3,45.7s4,31.3,4,31.3"/>
	<path opacity="0.35" fill="none" stroke="#FFFFFF" stroke-miterlimit="10" d="M1678.3,0c0,0-1.7,6,3.7,15.3s9,19,13.3,24.7
		c4.3,5.7,7.3,15.7,7.7,20.3s6,15.7,9.7,19.7c3.7,4,16.3,18.7,10.7,45.3c-5.7,26.7,1.4,24.7,1.4,24.7"/>
	<path opacity="0.35" fill="none" stroke="#FFFFFF" stroke-miterlimit="10" d="M1707.7,0c0,0,9,3.3,3,13.7s2.7,17.7,3.7,19.3
		c1,1.7,28.3,23,36,37.3c7.7,14.3,7.7,20,3.7,33.3s6,20,8,20.7c2,0.7,25.7,6.3,25.7,6.3s13,0.4,20.3,19.4"/>
	<path opacity="0.35" fill="none" stroke="#FFFFFF" stroke-miterlimit="10" d="M1742,0c0,0-1.7,6.7,3.7,11.7c5.3,5,11,12.7,12.2,18
		c1.2,5.3,6.8,18,13.5,23.7c6.7,5.7,9.3,11.3,8,27.7c-1.3,16.3,0.7,27,14.7,27.7c14,0.7,20.7-8.7,21.3-15.3
		c0.7-6.7,2-14.3,11.7-23.3s16-13.7,16-13.7s15.7-9.3,8-29.3s-0.7-27.1-0.7-27.1"/>
	<path opacity="0.35" fill="none" stroke="#FFFFFF" stroke-miterlimit="10" d="M1777-0.1c0,0-1.7,10.1-2.7,15.8s2.7,15.3,19,14
		c16.3-1.3,28-6.9,26-18.3s1.7-11.4,1.7-11.4"/>
	<path opacity="0.35" fill="none" stroke="#FFFFFF" stroke-miterlimit="10" d="M1874.7,0c0,0-10,10-5,26.7s1.3,20.3-5.3,30
		c-6.7,9.7-16,14.7-17.7,37.3c-1.7,22.7,13.3,37,14,40.7c0.7,3.7,3.2,7.4-0.1,15.4"/>
	<path opacity="0.35" fill="none" stroke="#FFFFFF" stroke-miterlimit="10" d="M1903-0.1c0,0,1.3,4.8-8.7,11.8s-12.3,8.7-11.3,19.7
		s4.7,16.7-3.7,31.7c-8.3,15-10,19-9.3,26s11,33.7,15,44s2.9,11.1,1.5,17"/>
	<path opacity="0.35" fill="none" stroke="#FFFFFF" stroke-miterlimit="10" d="M1920,12c0,0-13,3.3-20.3,23.3c-7.3,20-15,42-15,42
		s-7.3,14.1,8,31.4c15.3,17.3,8.8,41.3,8.8,41.3"/>
	<path opacity="0.35" fill="none" stroke="#FFFFFF" stroke-miterlimit="10" d="M1920,36.7c0,0-13,10-13,26.7s6.3,24.3,6.5,31.7
		s-2.2,26-1.5,37.7c0.7,11.7,3.3,17.4,3.3,17.4"/>
</g>
</svg>
